# xmcd CD database file
#
# Track frame offsets:
#	150
#	34532
#	70547
#	107343
#	129440
#	173434
#	214945
#	255377
#	273591
#	309822
#
# Disc length: 4416 seconds
#
# Revision: 0
# Processed by: cddbd v1.5.2PL0 Copyright (c) Steve Scherf et al.
# Submitted via: CDex 1.51
#
DISCID=76113e0a
DTITLE=Chris Potter - Song for Anyone
DYEAR=1900
DGENRE=Jazz
TTITLE0=The Absence
TTITLE1=Against the Wind
TTITLE2=Closer to the Sun
TTITLE3=Family Tree
TTITLE4=Chief Seattle
TTITLE5=Cupid and Psyche
TTITLE6=Song for Anyone
TTITLE7=The Arc of Day
TTITLE8=Estrellas del Sur
TTITLE9=All by All
EXTD=
EXTT0=
EXTT1=
EXTT2=
EXTT3=
EXTT4=
EXTT5=
EXTT6=
EXTT7=
EXTT8=
EXTT9=
PLAYORDER=
